<?xml version="1.0" encoding="UTF-8"?><svg id="Camada_2" xmlns="http://www.w3.org/2000/svg" viewBox="0 0 155.06 167.31"><defs><style>.cls-1{fill:#85cee9;}.cls-2{fill:blue;}.cls-3{fill:#007eaa;}.cls-4{fill:#009ccc;}</style></defs><g id="Camada_1-2"><g><path class="cls-3" d="M15.02,64.3c.86-5.81,3.98-21.49,17.19-34.81C49.24,12.29,70.73,11.45,77.02,11.3c25.57-.62,42.82,13.4,47,17,2.33-3.33,4.67-6.67,7-10-4.45-3.65-11.11-8.36-20-12C85.61-4.11,49.05-2.98,24.36,20.11,7.76,35.64,2.94,55.1,1.37,64.19c4.55,.04,9.1,.07,13.65,.11Z"/><path class="cls-2" d="M67.02,155.3c-6.41-1.03-19.84-4.14-32-15-21.5-19.21-21.13-46.7-21-51H.02c-.12,5.49-.18,32.73,21,55,17.35,18.25,38.41,22.07,45,23,.33-4,.67-8,1-12Z"/><path class="cls-4" d="M139.02,112.3c-1.16,5.81-3.67,13.77-9.44,21.44-16.87,22.45-46.39,22.27-50.38,22.19,.61,3.79,1.21,7.58,1.82,11.37,4.9,.11,36.61,.28,57.47-24.39,9.58-11.33,13.1-23.44,14.53-30.61h-14Z"/><path class="cls-1" d="M140.02,60.3c.4,2.17,.75,4.51,1,7,.39,3.95,.48,7.59,.38,10.84-29.53-.02-59.06-.04-88.59-.06-.14,3.68-.28,7.37-.42,11.05h101.79c.62-4.5,1.03-9.84,.84-15.84-.15-4.75-.64-9.04-1.28-12.78-4.57-.07-9.15-.15-13.72-.22Z"/></g></g></svg>